999
"DXF R12 Output" (www.mydxf.blogspot.com)
 0 
SECTION
 2 
HEADER
 9 
$ACADVER
 1 
AC1009
 9 
$EXTMIN
 10 
 0 
 20 
 0 
 9 
$EXTMAX
 10 
 8.5 
 20 
 11 
 0 
ENDSEC
 0 
SECTION
 2 
ENTITIES
0
LINE
8
Layer 1
10
0.846666
20
317.647000
11
-0.846666
21
315.953000
0
LINE
8
Layer 1
10
0.000000
20
318.211000
11
0.000000
21
315.389000
0
LINE
8
Layer 1
10
2.257780
20
315.671000
11
1.128890
21
314.542110
0
LINE
8
Layer 1
10
1.693330
20
316.236000
11
0.564440
21
315.107110
0
LINE
8
Layer 1
10
1.128890
20
316.800000
11
0.000000
21
315.671110
0
LINE
8
Layer 1
10
191.095000
20
-56.187100
11
190.873491
21
-55.360435
0
LINE
8
Layer 1
10
190.873491
20
-55.360435
11
190.268330
21
-54.755274
0
LINE
8
Layer 1
10
190.268330
20
-54.755274
11
189.441665
21
-54.533770
0
LINE
8
Layer 1
10
189.441665
20
-54.533770
11
188.615000
21
-54.755274
0
LINE
8
Layer 1
10
188.615000
20
-54.755274
11
188.009839
21
-55.360435
0
LINE
8
Layer 1
10
188.009839
20
-55.360435
11
187.788335
21
-56.187100
0
LINE
8
Layer 1
10
187.788335
20
-56.187100
11
188.009841
21
-57.013765
0
LINE
8
Layer 1
10
188.009841
20
-57.013765
11
188.615003
21
-57.618926
0
LINE
8
Layer 1
10
188.615003
20
-57.618926
11
189.441667
21
-57.840430
0
LINE
8
Layer 1
10
189.441667
20
-57.840430
11
190.268332
21
-57.618926
0
LINE
8
Layer 1
10
190.268332
20
-57.618926
11
190.873493
21
-57.013765
0
LINE
8
Layer 1
10
190.873493
20
-57.013765
11
191.094998
21
-56.187100
0
LINE
8
Layer 1
10
191.094998
20
-56.187100
11
191.095000
21
-56.187100
0
LINE
8
Layer 1
10
171.104000
20
-31.199400
11
170.882491
21
-30.372735
0
LINE
8
Layer 1
10
170.882491
20
-30.372735
11
170.277330
21
-29.767574
0
LINE
8
Layer 1
10
170.277330
20
-29.767574
11
169.450665
21
-29.546070
0
LINE
8
Layer 1
10
169.450665
20
-29.546070
11
168.624000
21
-29.767574
0
LINE
8
Layer 1
10
168.624000
20
-29.767574
11
168.018839
21
-30.372735
0
LINE
8
Layer 1
10
168.018839
20
-30.372735
11
167.797335
21
-31.199400
0
LINE
8
Layer 1
10
167.797335
20
-31.199400
11
168.018841
21
-32.026065
0
LINE
8
Layer 1
10
168.018841
20
-32.026065
11
168.624003
21
-32.631226
0
LINE
8
Layer 1
10
168.624003
20
-32.631226
11
169.450668
21
-32.852730
0
LINE
8
Layer 1
10
169.450668
20
-32.852730
11
170.277333
21
-32.631226
0
LINE
8
Layer 1
10
170.277333
20
-32.631226
11
170.882493
21
-32.026065
0
LINE
8
Layer 1
10
170.882493
20
-32.026065
11
171.103998
21
-31.199400
0
LINE
8
Layer 1
10
171.103998
20
-31.199400
11
171.104000
21
-31.199400
0
LINE
8
Layer 1
10
142.859000
20
-123.693000
11
142.644641
21
-122.893000
0
LINE
8
Layer 1
10
142.644641
20
-122.893000
11
142.059000
21
-122.307359
0
LINE
8
Layer 1
10
142.059000
20
-122.307359
11
141.259000
21
-122.093000
0
LINE
8
Layer 1
10
141.259000
20
-122.093000
11
140.459000
21
-122.307359
0
LINE
8
Layer 1
10
140.459000
20
-122.307359
11
139.873359
21
-122.893000
0
LINE
8
Layer 1
10
139.873359
20
-122.893000
11
139.659000
21
-123.693000
0
LINE
8
Layer 1
10
139.659000
20
-123.693000
11
139.873359
21
-124.493000
0
LINE
8
Layer 1
10
139.873359
20
-124.493000
11
140.459000
21
-125.078641
0
LINE
8
Layer 1
10
140.459000
20
-125.078641
11
141.259000
21
-125.293000
0
LINE
8
Layer 1
10
141.259000
20
-125.293000
11
142.059000
21
-125.078641
0
LINE
8
Layer 1
10
142.059000
20
-125.078641
11
142.644641
21
-124.493000
0
LINE
8
Layer 1
10
142.644641
20
-124.493000
11
142.859000
21
-123.693000
0
LINE
8
Layer 1
10
142.859000
20
-123.693000
11
142.859000
21
-123.693000
0
LINE
8
Layer 1
10
142.859000
20
-22.093300
11
142.644641
21
-21.293300
0
LINE
8
Layer 1
10
142.644641
20
-21.293300
11
142.059000
21
-20.707659
0
LINE
8
Layer 1
10
142.059000
20
-20.707659
11
141.259000
21
-20.493300
0
LINE
8
Layer 1
10
141.259000
20
-20.493300
11
140.459000
21
-20.707659
0
LINE
8
Layer 1
10
140.459000
20
-20.707659
11
139.873359
21
-21.293300
0
LINE
8
Layer 1
10
139.873359
20
-21.293300
11
139.659000
21
-22.093300
0
LINE
8
Layer 1
10
139.659000
20
-22.093300
11
139.873359
21
-22.893300
0
LINE
8
Layer 1
10
139.873359
20
-22.893300
11
140.459000
21
-23.478941
0
LINE
8
Layer 1
10
140.459000
20
-23.478941
11
141.259000
21
-23.693300
0
LINE
8
Layer 1
10
141.259000
20
-23.693300
11
142.059000
21
-23.478941
0
LINE
8
Layer 1
10
142.059000
20
-23.478941
11
142.644641
21
-22.893300
0
LINE
8
Layer 1
10
142.644641
20
-22.893300
11
142.859000
21
-22.093300
0
LINE
8
Layer 1
10
142.859000
20
-22.093300
11
142.859000
21
-22.093300
0
LINE
8
Layer 1
10
41.312800
20
-123.693000
11
41.098441
21
-122.893000
0
LINE
8
Layer 1
10
41.098441
20
-122.893000
11
40.512800
21
-122.307359
0
LINE
8
Layer 1
10
40.512800
20
-122.307359
11
39.712800
21
-122.093000
0
LINE
8
Layer 1
10
39.712800
20
-122.093000
11
38.912800
21
-122.307359
0
LINE
8
Layer 1
10
38.912800
20
-122.307359
11
38.327159
21
-122.893000
0
LINE
8
Layer 1
10
38.327159
20
-122.893000
11
38.112800
21
-123.693000
0
LINE
8
Layer 1
10
38.112800
20
-123.693000
11
38.327159
21
-124.493000
0
LINE
8
Layer 1
10
38.327159
20
-124.493000
11
38.912800
21
-125.078641
0
LINE
8
Layer 1
10
38.912800
20
-125.078641
11
39.712800
21
-125.293000
0
LINE
8
Layer 1
10
39.712800
20
-125.293000
11
40.512800
21
-125.078641
0
LINE
8
Layer 1
10
40.512800
20
-125.078641
11
41.098441
21
-124.493000
0
LINE
8
Layer 1
10
41.098441
20
-124.493000
11
41.312800
21
-123.693000
0
LINE
8
Layer 1
10
41.312800
20
-123.693000
11
41.312800
21
-123.693000
0
LINE
8
Layer 1
10
41.312800
20
-22.093300
11
41.098441
21
-21.293300
0
LINE
8
Layer 1
10
41.098441
20
-21.293300
11
40.512800
21
-20.707659
0
LINE
8
Layer 1
10
40.512800
20
-20.707659
11
39.712800
21
-20.493300
0
LINE
8
Layer 1
10
39.712800
20
-20.493300
11
38.912800
21
-20.707659
0
LINE
8
Layer 1
10
38.912800
20
-20.707659
11
38.327159
21
-21.293300
0
LINE
8
Layer 1
10
38.327159
20
-21.293300
11
38.112800
21
-22.093300
0
LINE
8
Layer 1
10
38.112800
20
-22.093300
11
38.327159
21
-22.893300
0
LINE
8
Layer 1
10
38.327159
20
-22.893300
11
38.912800
21
-23.478941
0
LINE
8
Layer 1
10
38.912800
20
-23.478941
11
39.712800
21
-23.693300
0
LINE
8
Layer 1
10
39.712800
20
-23.693300
11
40.512800
21
-23.478941
0
LINE
8
Layer 1
10
40.512800
20
-23.478941
11
41.098441
21
-22.893300
0
LINE
8
Layer 1
10
41.098441
20
-22.893300
11
41.312800
21
-22.093300
0
LINE
8
Layer 1
10
41.312800
20
-22.093300
11
41.312800
21
-22.093300
0
LINE
8
Layer 1
10
14.752900
20
21.640000
11
14.525630
21
22.495080
0
LINE
8
Layer 1
10
14.525630
20
22.495080
11
13.900762
21
23.121462
0
LINE
8
Layer 1
10
13.900762
20
23.121462
11
13.046235
21
23.350801
0
LINE
8
Layer 1
10
13.046235
20
23.350801
11
12.191708
21
23.121462
0
LINE
8
Layer 1
10
12.191708
20
23.121462
11
11.566840
21
22.495080
0
LINE
8
Layer 1
10
11.566840
20
22.495080
11
11.339570
21
21.640000
0
LINE
8
Layer 1
10
11.339570
20
21.640000
11
11.566840
21
20.784920
0
LINE
8
Layer 1
10
11.566840
20
20.784920
11
12.191708
21
20.158538
0
LINE
8
Layer 1
10
12.191708
20
20.158538
11
13.046235
21
19.929199
0
LINE
8
Layer 1
10
13.046235
20
19.929199
11
13.900762
21
20.158538
0
LINE
8
Layer 1
10
13.900762
20
20.158538
11
14.525630
21
20.784920
0
LINE
8
Layer 1
10
14.525630
20
20.784920
11
14.752900
21
21.640000
0
LINE
8
Layer 1
10
14.752900
20
21.640000
11
14.752900
21
21.640000
0
LINE
8
Layer 1
10
36.086200
20
21.640000
11
35.858930
21
22.495080
0
LINE
8
Layer 1
10
35.858930
20
22.495080
11
35.234062
21
23.121462
0
LINE
8
Layer 1
10
35.234062
20
23.121462
11
34.379535
21
23.350801
0
LINE
8
Layer 1
10
34.379535
20
23.350801
11
33.525008
21
23.121462
0
LINE
8
Layer 1
10
33.525008
20
23.121462
11
32.900140
21
22.495080
0
LINE
8
Layer 1
10
32.900140
20
22.495080
11
32.672870
21
21.640000
0
LINE
8
Layer 1
10
32.672870
20
21.640000
11
32.900140
21
20.784920
0
LINE
8
Layer 1
10
32.900140
20
20.784920
11
33.525008
21
20.158538
0
LINE
8
Layer 1
10
33.525008
20
20.158538
11
34.379535
21
19.929199
0
LINE
8
Layer 1
10
34.379535
20
19.929199
11
35.234062
21
20.158538
0
LINE
8
Layer 1
10
35.234062
20
20.158538
11
35.858930
21
20.784920
0
LINE
8
Layer 1
10
35.858930
20
20.784920
11
36.086200
21
21.640000
0
LINE
8
Layer 1
10
36.086200
20
21.640000
11
36.086200
21
21.640000
0
LINE
8
Layer 1
10
-6.580450
20
21.640000
11
-6.807720
21
22.495080
0
LINE
8
Layer 1
10
-6.807720
20
22.495080
11
-7.432588
21
23.121462
0
LINE
8
Layer 1
10
-7.432588
20
23.121462
11
-8.287115
21
23.350801
0
LINE
8
Layer 1
10
-8.287115
20
23.350801
11
-9.141642
21
23.121462
0
LINE
8
Layer 1
10
-9.141642
20
23.121462
11
-9.766510
21
22.495080
0
LINE
8
Layer 1
10
-9.766510
20
22.495080
11
-9.993780
21
21.640000
0
LINE
8
Layer 1
10
-9.993780
20
21.640000
11
-9.766510
21
20.784920
0
LINE
8
Layer 1
10
-9.766510
20
20.784920
11
-9.141642
21
20.158538
0
LINE
8
Layer 1
10
-9.141642
20
20.158538
11
-8.287115
21
19.929199
0
LINE
8
Layer 1
10
-8.287115
20
19.929199
11
-7.432588
21
20.158538
0
LINE
8
Layer 1
10
-7.432588
20
20.158538
11
-6.807720
21
20.784920
0
LINE
8
Layer 1
10
-6.807720
20
20.784920
11
-6.580450
21
21.640000
0
LINE
8
Layer 1
10
-6.580450
20
21.640000
11
-6.580450
21
21.640000
0
LINE
8
Layer 1
10
36.086200
20
2.973370
11
35.858930
21
3.828450
0
LINE
8
Layer 1
10
35.858930
20
3.828450
11
35.234062
21
4.454832
0
LINE
8
Layer 1
10
35.234062
20
4.454832
11
34.379535
21
4.684171
0
LINE
8
Layer 1
10
34.379535
20
4.684171
11
33.525008
21
4.454832
0
LINE
8
Layer 1
10
33.525008
20
4.454832
11
32.900140
21
3.828450
0
LINE
8
Layer 1
10
32.900140
20
3.828450
11
32.672870
21
2.973370
0
LINE
8
Layer 1
10
32.672870
20
2.973370
11
32.900140
21
2.118290
0
LINE
8
Layer 1
10
32.900140
20
2.118290
11
33.525008
21
1.491908
0
LINE
8
Layer 1
10
33.525008
20
1.491908
11
34.379535
21
1.262569
0
LINE
8
Layer 1
10
34.379535
20
1.262569
11
35.234062
21
1.491908
0
LINE
8
Layer 1
10
35.234062
20
1.491908
11
35.858930
21
2.118290
0
LINE
8
Layer 1
10
35.858930
20
2.118290
11
36.086200
21
2.973370
0
LINE
8
Layer 1
10
36.086200
20
2.973370
11
36.086200
21
2.973370
0
LINE
8
Layer 1
10
14.752900
20
2.973370
11
14.525630
21
3.828450
0
LINE
8
Layer 1
10
14.525630
20
3.828450
11
13.900762
21
4.454832
0
LINE
8
Layer 1
10
13.900762
20
4.454832
11
13.046235
21
4.684171
0
LINE
8
Layer 1
10
13.046235
20
4.684171
11
12.191708
21
4.454832
0
LINE
8
Layer 1
10
12.191708
20
4.454832
11
11.566840
21
3.828450
0
LINE
8
Layer 1
10
11.566840
20
3.828450
11
11.339570
21
2.973370
0
LINE
8
Layer 1
10
11.339570
20
2.973370
11
11.566840
21
2.118290
0
LINE
8
Layer 1
10
11.566840
20
2.118290
11
12.191708
21
1.491908
0
LINE
8
Layer 1
10
12.191708
20
1.491908
11
13.046235
21
1.262569
0
LINE
8
Layer 1
10
13.046235
20
1.262569
11
13.900762
21
1.491908
0
LINE
8
Layer 1
10
13.900762
20
1.491908
11
14.525630
21
2.118290
0
LINE
8
Layer 1
10
14.525630
20
2.118290
11
14.752900
21
2.973370
0
LINE
8
Layer 1
10
14.752900
20
2.973370
11
14.752900
21
2.973370
0
LINE
8
Layer 1
10
-6.580450
20
2.973370
11
-6.807720
21
3.828450
0
LINE
8
Layer 1
10
-6.807720
20
3.828450
11
-7.432588
21
4.454832
0
LINE
8
Layer 1
10
-7.432588
20
4.454832
11
-8.287115
21
4.684171
0
LINE
8
Layer 1
10
-8.287115
20
4.684171
11
-9.141642
21
4.454832
0
LINE
8
Layer 1
10
-9.141642
20
4.454832
11
-9.766510
21
3.828450
0
LINE
8
Layer 1
10
-9.766510
20
3.828450
11
-9.993780
21
2.973370
0
LINE
8
Layer 1
10
-9.993780
20
2.973370
11
-9.766510
21
2.118290
0
LINE
8
Layer 1
10
-9.766510
20
2.118290
11
-9.141642
21
1.491908
0
LINE
8
Layer 1
10
-9.141642
20
1.491908
11
-8.287115
21
1.262569
0
LINE
8
Layer 1
10
-8.287115
20
1.262569
11
-7.432588
21
1.491908
0
LINE
8
Layer 1
10
-7.432588
20
1.491908
11
-6.807720
21
2.118290
0
LINE
8
Layer 1
10
-6.807720
20
2.118290
11
-6.580450
21
2.973370
0
LINE
8
Layer 1
10
-6.580450
20
2.973370
11
-6.580450
21
2.973370
0
LINE
8
Layer 1
10
-40.287100
20
-129.027000
11
226.379000
21
-129.027000
0
LINE
8
Layer 1
10
226.379000
20
-129.027000
11
226.379000
21
30.973300
0
LINE
8
Layer 1
10
226.379000
20
30.973300
11
-40.287100
21
30.973300
0
LINE
8
Layer 1
10
-40.287100
20
30.973300
11
-40.287100
21
-129.027000
 0 
ENDSEC
 0 
EOF