<?xml version="1.0" encoding="UTF-8" standalone="no"?>
<svg
   xmlns:dc="http://purl.org/dc/elements/1.1/"
   xmlns:cc="http://creativecommons.org/ns#"
   xmlns:rdf="http://www.w3.org/1999/02/22-rdf-syntax-ns#"
   xmlns:svg="http://www.w3.org/2000/svg"
   xmlns="http://www.w3.org/2000/svg"
   xmlns:sodipodi="http://sodipodi.sourceforge.net/DTD/sodipodi-0.dtd"
   xmlns:inkscape="http://www.inkscape.org/namespaces/inkscape"
   width="210mm"
   height="297mm"
   viewBox="0 0 210 297"
   version="1.1"
   id="svg8"
   sodipodi:docname="wandBracket.svg"
   inkscape:version="1.0.2-2 (e86c870879, 2021-01-15)">
  <defs
     id="defs2">
    <marker
       id="DistanceX"
       orient="auto"
       refX="0.0"
       refY="0.0"
       style="overflow:visible">
      <path
         d="M 3,-3 L -3,3 M 0,-5 L  0,5"
         style="stroke:#000000; stroke-width:0.5"
         id="path833" />
    </marker>
    <pattern
       id="Hatch"
       patternUnits="userSpaceOnUse"
       width="8"
       height="8"
       x="0"
       y="0">
      <path
         d="M8 4 l-4,4"
         stroke="#000000"
         stroke-width="0.25"
         linecap="square"
         id="path836" />
      <path
         d="M6 2 l-4,4"
         stroke="#000000"
         stroke-width="0.25"
         linecap="square"
         id="path838" />
      <path
         d="M4 0 l-4,4"
         stroke="#000000"
         stroke-width="0.25"
         linecap="square"
         id="path840" />
    </pattern>
    <symbol
       id="*MODEL_SPACE" />
    <symbol
       id="*PAPER_SPACE" />
  </defs>
  <sodipodi:namedview
     id="base"
     pagecolor="#ffffff"
     bordercolor="#666666"
     borderopacity="1.0"
     inkscape:pageopacity="0.0"
     inkscape:pageshadow="2"
     inkscape:zoom="3.959798"
     inkscape:cx="34.923247"
     inkscape:cy="68.958742"
     inkscape:document-units="mm"
     inkscape:current-layer="layer2"
     inkscape:document-rotation="0"
     showgrid="false"
     inkscape:window-width="1920"
     inkscape:window-height="1001"
     inkscape:window-x="-9"
     inkscape:window-y="-9"
     inkscape:window-maximized="1" />
  <metadata
     id="metadata5">
    <rdf:RDF>
      <cc:Work
         rdf:about="">
        <dc:format>image/svg+xml</dc:format>
        <dc:type
           rdf:resource="http://purl.org/dc/dcmitype/StillImage" />
        <dc:title></dc:title>
      </cc:Work>
    </rdf:RDF>
  </metadata>
  <g
     inkscape:label="Lag 1"
     inkscape:groupmode="layer"
     id="layer1">
    <g
       inkscape:label="0"
       id="g887"
       transform="matrix(0.26458333,0,0,0.26458333,-10.884819,112.57269)"
       style="stroke:#ff0000;stroke-width:0.0377953;stroke-miterlimit:4;stroke-dasharray:none;stroke-opacity:1">
      <path
         d="m 68.021187,-311.95323 c -0.0059,-4.47584 0.335557,-8.9454 1.021229,-13.36841 0.502689,-3.24267 1.18929,-6.45315 2.056155,-9.61597"
         style="fill:none;stroke:#ff0000;stroke-width:0.0377953;stroke-miterlimit:4;stroke-dasharray:none;stroke-opacity:1"
         id="path847" />
      <path
         d="m 131.26732,-395.40011 c -0.056,0.28809 -0.11363,0.57586 -0.17294,0.8633 -3.01502,14.61392 -10.41531,28.29389 -20.99704,38.81454 -10.326358,10.26675 -23.641417,17.49148 -37.877662,20.55237 -0.373116,0.0802 -0.746832,0.15765 -1.121107,0.23229"
         style="fill:none;stroke:#ff0000;stroke-width:0.0377953;stroke-miterlimit:4;stroke-dasharray:none;stroke-opacity:1"
         id="path849" />
      <path
         d="m 131.26732,-395.40011 c 6.99105,-1.95276 14.2046,-3.01926 21.47065,-3.17098 8.40048,-0.1754 16.78189,0.87379 24.87992,3.11449"
         style="fill:none;stroke:#ff0000;stroke-width:0.0377953;stroke-miterlimit:4;stroke-dasharray:none;stroke-opacity:1"
         id="path851" />
      <path
         d="m 237.93404,-335.1402 c -0.22722,-0.0447 -0.45422,-0.0905 -0.68102,-0.13729 -14.71912,-3.0368 -28.4898,-10.52378 -39.04116,-21.22626 -10.29673,-10.4442 -17.49323,-23.90793 -20.45669,-38.27183 -0.0468,-0.2268 -0.0925,-0.45381 -0.13728,-0.68102"
         style="fill:none;stroke:#ff0000;stroke-width:0.0377953;stroke-miterlimit:4;stroke-dasharray:none;stroke-opacity:1"
         id="path853" />
      <path
         d="m 241.06383,-312.83946 c -0.0672,-7.52747 -1.12235,-15.04561 -3.12979,-22.30074"
         style="fill:none;stroke:#ff0000;stroke-width:0.0377953;stroke-miterlimit:4;stroke-dasharray:none;stroke-opacity:1"
         id="path855" />
      <path
         d="m 241.06383,-312.83946 h 0.19155"
         style="fill:none;stroke:#ff0000;stroke-width:0.0377953;stroke-miterlimit:4;stroke-dasharray:none;stroke-opacity:1"
         id="path857" />
      <path
         d="m 238.03747,-289.57564 c 2.12168,-7.56056 3.2076,-15.41117 3.21791,-23.26382"
         style="fill:none;stroke:#ff0000;stroke-width:0.0377953;stroke-miterlimit:4;stroke-dasharray:none;stroke-opacity:1"
         id="path859" />
      <path
         d="m 178.10948,-229.64788 c 0.0453,-0.225 0.0916,-0.4498 0.13895,-0.67439 3.07655,-14.59912 10.53321,-28.24597 21.15728,-38.72111 10.36768,-10.22234 23.71058,-17.39106 37.95738,-20.39331 0.22458,-0.0473 0.44938,-0.0936 0.67438,-0.13895"
         style="fill:none;stroke:#ff0000;stroke-width:0.0377953;stroke-miterlimit:4;stroke-dasharray:none;stroke-opacity:1"
         id="path861" />
      <path
         d="m 131.55716,-229.59149 c 15.13603,4.20794 31.42662,4.18818 46.55232,-0.0564"
         style="fill:none;stroke:#ff0000;stroke-width:0.0377953;stroke-miterlimit:4;stroke-dasharray:none;stroke-opacity:1"
         id="path863" />
      <path
         d="m 71.484363,-289.37315 c 0.225108,0.0448 0.450014,0.0905 0.674711,0.13732 14.606413,3.0411 28.271196,10.46452 38.772046,21.063 10.24742,10.3427 17.44853,23.66798 20.48545,37.9073 0.0479,0.22447 0.0947,0.44915 0.14059,0.67404"
         style="fill:none;stroke:#ff0000;stroke-width:0.0377953;stroke-miterlimit:4;stroke-dasharray:none;stroke-opacity:1"
         id="path865" />
      <path
         d="m 68.215064,-311.95323 c 0.08814,7.62686 1.19064,15.24146 3.269299,22.58008"
         style="fill:none;stroke:#ff0000;stroke-width:0.0377953;stroke-miterlimit:4;stroke-dasharray:none;stroke-opacity:1"
         id="path867" />
      <path
         d="M 68.215064,-311.95323 H 68.021187"
         style="fill:none;stroke:#ff0000;stroke-width:0.0377953;stroke-miterlimit:4;stroke-dasharray:none;stroke-opacity:1"
         id="path869" />
      <path
         d="m 90.29223,118.79929 a 7.559055,7.559055 0 0 0 15.11811,0 v -279.68504 a 7.559055,7.559055 0 0 0 -15.11811,0 z"
         style="fill:none;stroke:#ff0000;stroke-width:0.0377953;stroke-miterlimit:4;stroke-dasharray:none;stroke-opacity:1"
         id="path871" />
      <path
         d="m 218.79617,-160.88575 v 279.68504 a 7.5590555,7.5590555 0 0 1 -15.11811,0 v -279.68504 a 7.5590555,7.5590555 0 0 1 15.11811,0 z"
         style="fill:none;stroke:#ff0000;stroke-width:0.0377953;stroke-miterlimit:4;stroke-dasharray:none;stroke-opacity:1"
         id="path873" />
      <path
         d="m 160.59144,-217.57866 a 6.047245,6.047245 0 1 0 -12.09449,0 6.047245,6.047245 0 1 0 12.09449,0 z"
         style="fill:none;stroke:#ff0000;stroke-width:0.0377953;stroke-miterlimit:4;stroke-dasharray:none;stroke-opacity:1"
         id="path875" />
      <path
         d="m 158.32373,118.79929 a 3.779528,3.779528 0 0 0 3.77952,-3.77953 v -272.12598 a 3.779528,3.779528 0 0 0 -3.77952,-3.77953 h -7.55906 a 3.779528,3.779528 0 0 0 -3.77953,3.77953 v 272.12598 a 3.779528,3.779528 0 0 0 3.77953,3.77953 z"
         style="fill:none;stroke:#ff0000;stroke-width:0.0377953;stroke-miterlimit:4;stroke-dasharray:none;stroke-opacity:1"
         id="path877" />
      <path
         d="m 217.28436,-217.57866 a 6.047245,6.047245 0 1 0 -12.09449,0 6.047245,6.047245 0 1 0 12.09449,0 z"
         style="fill:none;stroke:#ff0000;stroke-width:0.0377953;stroke-miterlimit:4;stroke-dasharray:none;stroke-opacity:1"
         id="path879" />
      <path
         d="m 103.89853,-217.57866 a 6.0472445,6.0472445 0 1 0 -12.094489,0 6.0472445,6.0472445 0 1 0 12.094489,0 z"
         style="fill:none;stroke:#ff0000;stroke-width:0.0377953;stroke-miterlimit:4;stroke-dasharray:none;stroke-opacity:1"
         id="path881" />
      <path
         d="M 267.93002,141.47645 V -425.45268 H 41.158371 v 566.92913 z"
         style="fill:none;stroke:#ff0000;stroke-width:0.0377953;stroke-miterlimit:4;stroke-dasharray:none;stroke-opacity:1"
         id="path883" />
      <path
         d="M 41.158371,-425.45268 H 267.93002 V 141.47645 H 41.158371 Z"
         style="fill:none;stroke:#ff0000;stroke-width:0.0377953;stroke-miterlimit:4;stroke-dasharray:none;stroke-opacity:1"
         id="path885" />
    </g>
  </g>
  <g
     inkscape:groupmode="layer"
     id="layer2"
     inkscape:label="Lag 2">
    <circle
       style="fill:#ffffff;stroke:#ff0000;stroke-width:0.01;stroke-miterlimit:4;stroke-dasharray:none;stroke-opacity:1"
       id="path939"
       cx="4.5500002"
       cy="3.55"
       r="1.5245901" />
    <circle
       style="fill:#ffffff;stroke:#ff0000;stroke-width:0.01;stroke-miterlimit:4;stroke-dasharray:none;stroke-opacity:1"
       id="path939-8"
       cx="55.450001"
       cy="3.55"
       r="1.5245901" />
  </g>
</svg>
